<svg width="24" height="24" viewBox="0 0 24 24" fill="none" xmlns="http://www.w3.org/2000/svg">
<g id="Frame" clip-path="url(#clip0_16_41)">
<g id="Layer_x0020_1">
<path id="Vector" d="M12 0C18.6272 0 24 5.37281 24 12C24 18.6272 18.6272 24 12 24C5.37281 24 0 18.6272 0 12C0 5.37281 5.37281 0 12 0ZM10.2052 17.6939V12.2311H9.43359C9.19922 12.2311 9.00937 12.0408 9.00937 11.8069V10.0772C9.00937 9.84422 9.20016 9.65344 9.43359 9.65344H10.2052V8.26266C10.2052 6.94781 11.2716 5.88188 12.5864 5.88188H14.5664C14.8008 5.88188 14.9906 6.07172 14.9906 6.30609V8.03531C14.9906 8.26969 14.8008 8.45953 14.5664 8.45953H13.3945C13.2609 8.45953 13.1508 8.56969 13.1508 8.70328V9.65438L14.5406 9.65344C14.775 9.66984 14.9648 9.82781 14.9648 10.0772C14.9236 10.6631 14.8664 11.2552 14.8167 11.842C14.7984 12.0609 14.6142 12.2311 14.3944 12.2311H13.1508V17.6939C13.1508 17.9269 12.9605 18.1177 12.727 18.1177L10.6294 18.1181C10.3955 18.1181 10.2052 17.9278 10.2052 17.6939ZM10.7592 17.565H12.5967V11.677H14.2753L14.3995 10.2061H12.5967V8.70328C12.5967 8.26266 12.9539 7.90547 13.3945 7.90547H14.4366V6.43594H12.5864C11.5772 6.43594 10.7592 7.25391 10.7592 8.26266V10.207H9.56344V11.677H10.7592V17.565ZM12 0.553594C5.67844 0.553594 0.553594 5.67844 0.553594 12C0.553594 18.3216 5.67844 23.4464 12 23.4464C18.3216 23.4464 23.4464 18.3216 23.4464 12C23.4464 5.67844 18.3216 0.553594 12 0.553594Z" fill="#EBEBEB"/>
</g>
</g>
<defs>
<clipPath id="clip0_16_41">
<rect width="24" height="24" fill="white"/>
</clipPath>
</defs>
</svg>
