<svg width="24" height="24" viewBox="0 0 24 24" fill="none" xmlns="http://www.w3.org/2000/svg">
<g id="Frame" clip-path="url(#clip0_16_44)">
<path id="Vector" d="M12 24C5.3858 24 0 18.6144 0 12C0 5.38585 5.3858 4.54793e-05 12 4.54793e-05C15.1843 -0.00874354 18.24 1.25667 20.4858 3.51441L20.8928 3.92142L16.8501 7.95727L16.4428 7.55005C14.5164 5.62692 11.571 5.16235 9.14605 6.3991C6.72111 7.63584 5.36781 10.2931 5.79365 12.9817C6.2193 15.6703 8.32741 17.7792 11.0158 18.2063C13.7042 18.6334 16.3621 17.2816 17.6001 14.8573H11.4285V9.14295H23.6643L23.7572 9.59999C23.9181 10.39 23.9995 11.1939 24 12C24 18.6144 18.6144 24 12 24ZM12 1.14304C6.01422 1.14304 1.14279 6.01426 1.14279 12C1.14279 17.9858 6.01422 22.8572 12 22.8572C17.9857 22.8572 22.8572 17.9858 22.8572 12C22.8568 11.426 22.8113 10.8528 22.7214 10.2857H12.5715V13.7143H19.2714L19 14.4785C17.9119 17.5465 14.9529 19.5488 11.7001 19.4178C8.44753 19.287 5.6591 17.0537 4.82079 13.9081C3.98248 10.7627 5.28996 7.43788 8.04595 5.70581C10.8022 3.97353 14.3651 4.23762 16.8356 6.35725L19.2643 3.92875C17.274 2.12804 14.6838 1.13467 12 1.14304Z" fill="#EBEBEB"/>
</g>
<defs>
<clipPath id="clip0_16_44">
<rect width="24" height="24" fill="white"/>
</clipPath>
</defs>
</svg>
