<svg width="24" height="24" viewBox="0 0 24 24" fill="none" xmlns="http://www.w3.org/2000/svg">
<g id="Frame" clip-path="url(#clip0_16_38)">
<g id="Layer_x0020_1">
<path id="Vector" d="M12.0007 0.00439453C18.6255 0.00439453 23.9964 5.37533 23.9964 12.0002C23.9964 18.625 18.6255 23.996 12.0007 23.996C5.37582 23.996 0.00488281 18.625 0.00488281 12.0002C0.00488281 5.37533 5.37582 0.00439453 12.0007 0.00439453ZM7.05723 17.1621H8.74801V10.4641H7.05723V17.1621ZM12.3363 13.6324C12.3363 12.5758 12.8341 11.7288 13.9807 11.7288C15.1127 11.7288 15.4793 12.6414 15.4793 13.6324V17.163H17.1597V12.8477C17.1597 11.3149 16.4172 10.2428 14.7982 10.2428C14.0632 10.2428 13.2143 10.6281 12.8552 11.2971L12.3363 12.2435V10.4641H10.7364V17.1621H12.3363V13.6324ZM12.8899 13.6324V17.7156H10.1829V9.91049H12.8899V10.4088C13.4243 9.93018 14.0805 9.68924 14.7982 9.68924C16.7229 9.68924 17.7133 11.0083 17.7133 12.8477V17.7142L14.9257 17.7147V13.6324C14.9257 12.9667 14.7789 12.2824 13.9807 12.2824C13.1482 12.2824 12.8899 12.888 12.8899 13.6324ZM7.89207 8.96127C8.47801 8.96127 8.94254 8.48221 8.94254 7.89955C8.94254 7.31643 8.47801 6.8383 7.89207 6.8383C7.30613 6.8383 6.8416 7.31643 6.8416 7.89955C6.8416 8.48221 7.30566 8.96127 7.89207 8.96127ZM7.89207 9.51486C7.00285 9.51486 6.28801 8.78549 6.28801 7.89955C6.28801 7.01361 7.00285 6.28471 7.89207 6.28471C8.78082 6.28471 9.49613 7.01361 9.49613 7.89955C9.49613 8.78502 8.78082 9.51486 7.89207 9.51486ZM6.50363 17.7156V9.91049H9.3016V17.7156H6.50363ZM12.0007 0.558457C5.68145 0.558457 0.558477 5.68096 0.558477 12.0002C0.558477 18.3194 5.68145 23.4419 12.0007 23.4419C18.3199 23.4419 23.4429 18.3194 23.4429 12.0002C23.4429 5.68096 18.3199 0.558457 12.0007 0.558457Z" fill="#EBEBEB"/>
</g>
</g>
<defs>
<clipPath id="clip0_16_38">
<rect width="24" height="24" fill="white"/>
</clipPath>
</defs>
</svg>
