<svg width="240" height="39" viewBox="0 0 240 39" fill="none" xmlns="http://www.w3.org/2000/svg">
<g id="Isolation_Mode" clip-path="url(#clip0_16_49)">
<path id="Vector" d="M15.1794 7.6134H0.517578V1.12061H19.1943L15.1794 7.6134ZM10.5464 38.4682V7.71398C10.5464 4.08762 13.7093 1.12061 17.6184 1.12061H28.7553V7.6134H18.0694V38.4682H10.5464Z" fill="black"/>
<path id="Vector_2" d="M46.6689 38.9764C38.745 38.9764 32.2744 32.6344 32.2744 24.7839V14.8156C32.2744 6.96498 38.745 0.623047 46.6689 0.623047H51.6861C59.6101 0.623047 66.0806 6.96498 66.0806 14.8156V24.7839C66.0806 32.6344 59.6101 38.9764 51.6861 38.9764H46.6689ZM51.6861 32.4836C55.5005 32.4836 58.5576 29.0081 58.5576 24.7839V14.8156C58.5576 10.5857 55.495 7.11584 51.6861 7.11584H46.6689C42.8545 7.11584 39.7974 10.5913 39.7974 14.8156V24.7839C39.7974 29.0137 42.8601 32.4836 46.6689 32.4836H51.6861Z" fill="black"/>
<path id="Vector_3" d="M84.947 38.9764C77.023 38.9764 70.5469 32.6344 70.5469 24.7839V14.8156C70.5469 6.96498 77.0174 0.623047 84.947 0.623047H89.9642C97.8881 0.623047 104.364 6.96498 104.364 14.8156V24.7839C104.364 32.6344 97.8937 38.9764 89.9642 38.9764H84.947ZM89.9642 32.4836C93.7786 32.4836 96.8357 29.0081 96.8357 24.7839V14.8156C96.8357 10.5857 93.773 7.11584 89.9642 7.11584H84.947C81.1325 7.11584 78.0755 10.5913 78.0755 14.8156V24.7839C78.0755 29.0137 81.1381 32.4836 84.947 32.4836H89.9642Z" fill="black"/>
<path id="Vector_4" d="M139.133 31.9754L134.678 38.4682H117.5C113.585 38.4682 110.428 35.4956 110.428 31.8748V1.12061H117.951V31.9754H139.133Z" fill="black"/>
<path id="Vector_5" d="M149.864 1.12061V38.2447H142.341V1.12061H149.864Z" fill="black"/>
<path id="Vector_6" d="M164.91 1.12061V38.4737H157.387V1.12061H164.91Z" fill="black"/>
<path id="Vector_7" d="M179.611 38.4737H172.088V7.71398C172.088 4.08762 175.251 1.12061 179.16 1.12061H202.336L198.822 7.6134H179.611V16.7268H197.319V23.2196H179.611V38.4737Z" fill="black"/>
<path id="Vector_8" d="M231.732 1.12061H239.756L228.82 18.7886C227.617 20.6996 226.414 22.1132 225.156 23.0687V38.4737H217.633V23.1693C216.33 22.2138 215.077 20.7555 213.868 18.7886L202.938 1.12061H210.962L221.347 17.3302L231.732 1.12061Z" fill="black"/>
</g>
<defs>
<clipPath id="clip0_16_49">
<rect width="239.238" height="38.3589" fill="white" transform="translate(0.517578 0.617676)"/>
</clipPath>
</defs>
</svg>
