<svg width="24" height="24" viewBox="0 0 24 24" fill="none" xmlns="http://www.w3.org/2000/svg">
<g id="Group">
<g id="Group_2">
<path id="Vector" d="M12 0C5.38292 0 0 5.38292 0 12C0 14.2574 0.627231 16.4488 1.81708 18.3517C1.34308 20.0123 0.486923 23.1535 0.477692 23.1863C0.433385 23.3488 0.480923 23.5223 0.602308 23.6391C0.723692 23.7558 0.899077 23.7974 1.05877 23.7485L5.81538 22.2854C7.67862 23.4078 9.81231 24 12 24C18.6171 24 24 18.6171 24 12C24 5.38292 18.6171 0 12 0ZM12 23.0769C9.91431 23.0769 7.88262 22.494 6.12415 21.3918C6.04985 21.3452 5.96446 21.3217 5.87908 21.3217C5.83338 21.3217 5.78769 21.3286 5.74338 21.342L1.59 22.6205C1.89508 21.5068 2.44338 19.5148 2.76138 18.4066C2.79831 18.2783 2.77754 18.1398 2.70508 18.0277C1.53923 16.2337 0.923077 14.1494 0.923077 12C0.923077 5.89246 5.89246 0.923077 12 0.923077C18.1075 0.923077 23.0769 5.89246 23.0769 12C23.0769 18.1075 18.1075 23.0769 12 23.0769Z" fill="#EBEBEB"/>
<path id="Vector_2" d="M19.8393 14.8273C18.9873 14.3542 18.2618 13.8797 17.7324 13.5336C17.3281 13.2696 17.0359 13.079 16.8218 12.9714C16.2231 12.6728 15.7694 12.8837 15.5968 13.0582C15.5751 13.0799 15.5558 13.1034 15.5391 13.1284C14.9174 14.0611 14.1056 14.9533 13.8679 15.0013C13.5933 14.9584 12.3079 14.2277 11.0304 13.1639C9.72606 12.077 8.90544 11.0362 8.78498 10.3273C9.62175 9.46606 9.92314 8.92421 9.92314 8.3076C9.92314 7.67206 8.44068 5.01867 8.17252 4.75052C7.90344 4.4819 7.29744 4.4399 6.37114 4.62452C6.28206 4.64252 6.19991 4.68636 6.13529 4.75052C6.02314 4.86267 3.39883 7.53821 4.64591 10.781C6.01483 14.3399 9.52852 18.4767 14.0082 19.1487C14.5173 19.2248 14.9945 19.2627 15.4413 19.2627C18.0767 19.2627 19.6321 17.9367 20.0701 15.3064C20.1028 15.1139 20.0101 14.9219 19.8393 14.8273ZM14.1453 18.2358C9.40806 17.5254 6.42421 12.8321 5.5076 10.4496C4.59837 8.08652 6.27514 5.9796 6.69606 5.50329C7.03852 5.44513 7.39898 5.42067 7.54944 5.44421C7.86375 5.88129 8.95206 7.93744 9.00006 8.3076C9.00006 8.5499 8.92114 8.88729 7.98144 9.82744C7.89467 9.91375 7.84621 10.031 7.84621 10.1537C7.84621 12.5704 12.9434 15.923 13.8462 15.923C14.6313 15.923 15.655 14.6034 16.2379 13.7436C16.2716 13.745 16.3284 13.7565 16.4091 13.7971C16.5753 13.8807 16.8633 14.0685 17.2274 14.3067C17.7084 14.621 18.3471 15.0382 19.1013 15.4707C18.7588 17.1184 17.8016 18.785 14.1453 18.2358Z" fill="#EBEBEB"/>
</g>
</g>
</svg>
